<svg xmlns="http://www.w3.org/2000/svg" width="779" height="779" viewBox="0 0 779 779" fill="none">
  <g clip-path="url(#clip0_13701_7339)">
    <path d="M114.07 114.07H664.93V664.93H114.07V114.07Z" stroke="#000" stroke-width="2"></path>
    <path d="M0.398438 389.501L389.497 0.402344L778.594 389.501L389.497 778.598L0.398438 389.501Z" stroke="#000"
      stroke-width="2"></path>
    <path
      d="M389.498 778.716C604.456 778.716 778.714 604.458 778.714 389.5C778.714 174.541 604.456 0.283203 389.498 0.283203C174.539 0.283203 0.28125 174.541 0.28125 389.5C0.28125 604.458 174.539 778.716 389.498 778.716Z"
      stroke="#000" stroke-width="2"></path>
    <path
      d="M114.297 114.299L389.498 0.306641L664.701 114.299L778.691 389.5L664.701 664.703L389.498 778.693L114.297 664.703L0.304688 389.5L114.297 114.299Z"
      stroke="#000" stroke-width="2"></path>
    <path d="M665.216 665.214L113.789 113.787" stroke="#000" stroke-width="2"></path>
    <path d="M113.789 665.214L665.216 113.787" stroke="#000" stroke-width="2"></path>
  </g>
  <defs>
    <clipPath id="clip0_13701_7339">
      <rect width="779" height="779" fill="white"></rect>
    </clipPath>
  </defs>
</svg>